HIERARCHY
ROOT Hips
{
	OFFSET 0.00 0.00 0.00
	CHANNELS 6 Xposition Yposition Zposition Xrotation Yrotation Zrotation
	JOINT Spine
	{
		OFFSET 0.00000 1.15266 1.72900
		CHANNELS 3 Xrotation Yrotation Zrotation
		JOINT Spine1
		{
			OFFSET 0.00000 0.40032 2.27031
			CHANNELS 3 Xrotation Yrotation Zrotation
			JOINT Spine2
			{
				OFFSET 0.00000 0.20092 2.29656
				CHANNELS 3 Xrotation Yrotation Zrotation
				JOINT Spine3
				{
					OFFSET 0.00000 0.00000 2.30533
					CHANNELS 3 Xrotation Yrotation Zrotation
					JOINT Neck
					{
						OFFSET 0.00000 -0.86449 6.05149
						CHANNELS 3 Xrotation Yrotation Zrotation
						JOINT Head
						{
							OFFSET 0.00000 -0.55043 3.12167
							CHANNELS 3 Xrotation Yrotation Zrotation
							End Site
							{
								OFFSET 0.00000 0.00000 3.73175
							}
						}
					}
					JOINT RightShoulder
					{
						OFFSET -0.78828 -1.31380 4.25672
						CHANNELS 3 Xrotation Yrotation Zrotation
						JOINT RightArm
						{
							OFFSET -3.91513 0.00000 0.00000
							CHANNELS 3 Xrotation Yrotation Zrotation
							JOINT RightForeArm
							{
								OFFSET -6.91491 0.00000 0.00000
								CHANNELS 3 Xrotation Yrotation Zrotation
								JOINT RightHand
								{
									OFFSET -6.09622 0.00000 0.00000
									CHANNELS 3 Xrotation Yrotation Zrotation
									JOINT RightHandEnd
									{
										OFFSET -1.74995 0.00000 0.00000
										CHANNELS 3 Xrotation Yrotation Zrotation
										End Site
										{
											OFFSET -1.74995 0.00000 0.00000
										}
									}
									JOINT RightHandThumb1
									{
										OFFSET -0.69998 -1.16663 -0.46665
										CHANNELS 3 Yrotation Xrotation Zrotation
										End Site
										{
											OFFSET -1.69032 -0.45292 0.00000
										}
									}
								}
							}
						}
					}
					JOINT LeftShoulder
					{
						OFFSET 0.78828 -1.31380 4.25672
						CHANNELS 3 Xrotation Yrotation Zrotation
						JOINT LeftArm
						{
							OFFSET 3.91513 0.00000 0.00000
							CHANNELS 3 Xrotation Yrotation Zrotation
							JOINT LeftForeArm
							{
								OFFSET 6.91491 0.00000 0.00000
								CHANNELS 3 Xrotation Yrotation Zrotation
								JOINT LeftHand
								{
									OFFSET 6.09622 0.00000 0.00000
									CHANNELS 3 Xrotation Yrotation Zrotation
									JOINT LeftHandEnd
									{
										OFFSET 1.74995 0.00000 0.00000
										CHANNELS 3 Xrotation Yrotation Zrotation
										End Site
										{
											OFFSET 1.74995 0.00000 0.00000
										}
									}
									JOINT LeftHandThumb1
									{
										OFFSET 0.69998 -1.16663 -0.46665
										CHANNELS 3 Yrotation Xrotation Zrotation
										End Site
										{
											OFFSET 1.69032 -0.45292 0.00000
										}
									}
								}
							}
						}
					}
				}
			}
		}
	}
	JOINT RightUpLeg
	{
		OFFSET -2.33857 0.00000 -0.68318
		CHANNELS 3 Xrotation Yrotation Zrotation
		JOINT RightLeg
		{
			OFFSET 0.00000 0.00000 -10.74496
			CHANNELS 3 Xrotation Yrotation Zrotation
			JOINT RightFoot
			{
				OFFSET 0.00000 0.00000 -10.93085
				CHANNELS 3 Xrotation Yrotation Zrotation
				JOINT RightToeBase
				{
					OFFSET 0.00000 -4.08727 -1.48765
					CHANNELS 3 Xrotation Yrotation Zrotation
					End Site
					{
						OFFSET 0.00000 -1.89187 -0.00000
					}
				}
			}
		}
	}
	JOINT LeftUpLeg
	{
		OFFSET 2.33857 0.00000 -0.68318
		CHANNELS 3 Xrotation Yrotation Zrotation
		JOINT LeftLeg
		{
			OFFSET 0.00000 0.00000 -10.74496
			CHANNELS 3 Xrotation Yrotation Zrotation
			JOINT LeftFoot
			{
				OFFSET 0.00000 0.00000 -10.93085
				CHANNELS 3 Xrotation Yrotation Zrotation
				JOINT LeftToeBase
				{
					OFFSET 0.00000 -4.08727 -1.48765
					CHANNELS 3 Xrotation Yrotation Zrotation
					End Site
					{
						OFFSET 0.00000 -1.89187 -0.00000
					}
				}
			}
		}
	}
}
MOTION
Frames: 7
Frame Time: 0.008342
 0.6963 -12.0361 24.9696 -3.5215 -0.9172 165.9916 5.3483 -0.9605 -0.1429 3.5181 -0.2549 0.1511 -3.6343 0.2372 7.0653 -2.6652 0.1638 1.5207 -3.5838 -1.0041 -2.9554 -2.9042 -2.0417 -7.5662 -12.4665 7.6549 -2.8856 0.2878 -3.3348 -3.4292 0.0000 0.0000 16.7341 -4.7290 -0.3960 -8.3237 0.0000 -0.0000 0.0000 0.0000 -0.0000 -0.0000 -11.2740 -6.5412 3.2733 -6.3161 9.2212 -7.0842 -0.0000 0.0000 3.0330 -1.1590 0.5369 11.5169 -0.0000 0.0000 -0.0000 0.0000 0.0000 -0.0000 -3.6444 0.5237 -4.3175 2.4143 0.0000 0.0000 -2.0859 -2.2967 -9.8587 -1.4634 0.0000 -0.0000 -2.9828 -7.3473 10.4578 5.5788 0.0000 0.0000 -7.3777 5.4266 -2.4111 -2.6930 0.0000 -0.0000
 0.6962 -12.0352 24.9695 -3.5247 -0.9154 165.9820 5.3574 -0.9666 -0.1440 3.5159 -0.2554 0.1514 -3.6442 0.2340 7.0708 -2.6709 0.1635 1.5225 -3.6030 -0.9850 -2.9590 -2.8932 -2.0289 -7.5648 -12.4598 7.6863 -2.8715 0.2971 -3.3715 -3.4355 0.0000 0.0000 16.7175 -4.7684 -0.4095 -8.3312 -0.0000 0.0000 -0.0000 -0.0000 -0.0000 -0.0000 -11.2592 -6.5581 3.2534 -6.3277 9.2447 -7.0457 -0.0000 0.0000 3.0345 -1.2048 0.5620 11.5001 -0.0000 0.0000 0.0000 0.0000 -0.0000 -0.0000 -3.6415 0.5248 -4.3117 2.4033 0.0000 0.0000 -2.0819 -2.2997 -9.8562 -1.4623 0.0000 -0.0000 -2.9782 -7.3453 10.4636 5.5699 0.0000 0.0000 -7.3770 5.4346 -2.4045 -2.6936 0.0000 -0.0000
 0.6960 -12.0342 24.9695 -3.5282 -0.9116 165.9672 5.3676 -0.9726 -0.1450 3.5150 -0.2542 0.1519 -3.6558 0.2267 7.0810 -2.6780 0.1618 1.5267 -3.6286 -0.9570 -2.9660 -2.8799 -2.0134 -7.5618 -12.4513 7.7340 -2.8542 0.3116 -3.4234 -3.4462 0.0000 0.0000 16.6973 -4.8149 -0.4139 -8.3385 -0.0000 -0.0000 -0.0000 -0.0000 -0.0000 -0.0000 -11.2428 -6.5853 3.2180 -6.3362 9.2821 -6.9845 -0.0000 0.0000 3.0307 -1.2558 0.5869 11.4814 0.0000 0.0000 0.0000 -0.0000 0.0000 -0.0000 -3.6401 0.5278 -4.3066 2.3935 0.0000 0.0000 -2.0771 -2.3018 -9.8479 -1.4643 0.0000 -0.0000 -2.9729 -7.3415 10.4710 5.5614 0.0000 0.0000 -7.3766 5.4485 -2.3936 -2.6970 0.0000 -0.0000
 0.6958 -12.0330 24.9693 -3.5315 -0.9067 165.9482 5.3812 -0.9780 -0.1447 3.5127 -0.2525 0.1528 -3.6695 0.2159 7.0929 -2.6860 0.1587 1.5315 -3.6597 -0.9224 -2.9740 -2.8643 -1.9946 -7.5555 -12.4382 7.7908 -2.8331 0.3309 -3.4824 -3.4576 0.0000 0.0000 16.6712 -4.8698 -0.4096 -8.3438 -0.0000 -0.0000 0.0000 0.0000 -0.0000 0.0000 -11.2174 -6.6199 3.1795 -6.3461 9.3276 -6.9166 -0.0000 0.0000 3.0290 -1.3138 0.6145 11.4598 0.0000 -0.0000 0.0000 -0.0000 0.0000 0.0000 -3.6410 0.5322 -4.3009 2.3876 0.0000 0.0000 -2.0724 -2.3027 -9.8362 -1.4699 0.0000 -0.0000 -2.9679 -7.3369 10.4814 5.5557 0.0000 0.0000 -7.3769 5.4690 -2.3808 -2.7045 0.0000 -0.0000
 0.6956 -12.0317 24.9692 -3.5348 -0.9006 165.9254 5.3968 -0.9830 -0.1445 3.5092 -0.2503 0.1534 -3.6824 0.2022 7.1073 -2.6954 0.1549 1.5375 -3.6959 -0.8836 -2.9792 -2.8458 -1.9714 -7.5490 -12.4215 7.8561 -2.8076 0.3560 -3.5486 -3.4704 0.0000 0.0000 16.6389 -4.9292 -0.3931 -8.3461 -0.0000 0.0000 -0.0000 -0.0000 0.0000 0.0000 -11.1843 -6.6634 3.1361 -6.3544 9.3810 -6.8393 -0.0000 0.0000 3.0272 -1.3718 0.6419 11.4380 0.0000 -0.0000 -0.0000 0.0000 -0.0000 0.0000 -3.6447 0.5376 -4.2956 2.3866 0.0000 0.0000 -2.0679 -2.3021 -9.8205 -1.4794 0.0000 -0.0000 -2.9639 -7.3320 10.4949 5.5540 0.0000 0.0000 -7.3779 5.4956 -2.3671 -2.7166 0.0000 -0.0000
 0.6955 -12.0304 24.9690 -3.5377 -0.8938 165.8990 5.4136 -0.9879 -0.1440 3.5043 -0.2482 0.1541 -3.6938 0.1858 7.1239 -2.7059 0.1508 1.5447 -3.7348 -0.8410 -2.9843 -2.8259 -1.9461 -7.5390 -12.4011 7.9274 -2.7785 0.3852 -3.6184 -3.4852 0.0000 0.0000 16.6030 -4.9921 -0.3648 -8.3451 -0.0000 -0.0000 -0.0000 -0.0000 0.0000 0.0000 -11.1430 -6.7146 3.0896 -6.3614 9.4403 -6.7573 -0.0000 0.0000 3.0262 -1.4275 0.6650 11.4164 -0.0000 0.0000 -0.0000 0.0000 -0.0000 0.0000 -3.6516 0.5439 -4.2909 2.3916 0.0000 0.0000 -2.0642 -2.2999 -9.8007 -1.4926 0.0000 -0.0000 -2.9619 -7.3272 10.5118 5.5582 0.0000 0.0000 -7.3803 5.5275 -2.3532 -2.7335 0.0000 -0.0000
 0.6954 -12.0292 24.9688 -3.5417 -0.8861 165.8698 5.4295 -0.9925 -0.1429 3.4977 -0.2453 0.1546 -3.7026 0.1658 7.1426 -2.7167 0.1468 1.5528 -3.7753 -0.7957 -2.9881 -2.8047 -1.9189 -7.5261 -12.3775 8.0017 -2.7466 0.4167 -3.6882 -3.5020 0.0000 0.0000 16.5651 -5.0551 -0.3256 -8.3418 0.0000 -0.0000 0.0000 -0.0000 -0.0000 0.0000 -11.0954 -6.7722 3.0418 -6.3640 9.5028 -6.6745 -0.0000 0.0000 3.0264 -1.4771 0.6781 11.3972 -0.0000 0.0000 0.0000 0.0000 -0.0000 0.0000 -3.6640 0.5509 -4.2868 2.4042 0.0000 0.0000 -2.0621 -2.2960 -9.7774 -1.5087 0.0000 -0.0000 -2.9644 -7.3227 10.5317 5.5701 0.0000 0.0000 -7.3844 5.5626 -2.3399 -2.7544 0.0000 -0.0000
